<?xml version="1.0" encoding="utf-8"?>
<!-- Generator: Adobe Illustrator 22.0.0, SVG Export Plug-In . SVG Version: 6.00 Build 0)  -->
<svg version="1.1" id="Layer_2" xmlns="http://www.w3.org/2000/svg" xmlns:xlink="http://www.w3.org/1999/xlink" x="0px" y="0px"
	 viewBox="0 0 796.3 215.2" style="enable-background:new 0 0 796.3 215.2;" xml:space="preserve">
<style type="text/css">
	.st0{fill:#FFFFFF;}
</style>
<g>
	<path d="M-765.3,683.1c0-115.5,0-230.9,0-346.4c0-13.5,4.1-17.7,17.7-17.7c24.9,0,49.8-0.1,74.6,0c96.1,0.5,172.9,77.5,173,173.6
		c0.1,126.8,0.1,253.6,0,380.4c-0.1,96.2-77.6,173.4-173.9,173.6c-24.4,0-48.8,0-73.2,0c-14,0-18.3-4.2-18.3-18
		C-765.3,913.6-765.3,798.4-765.3,683.1z"/>
	<path d="M-193.4,683.1c0,114.7,0,229.5,0,344.2c0,15.9-3.7,19.6-19.7,19.4c-29.9-0.3-60,0.8-89.8-1.4
		c-76-5.6-141.7-67.4-153.2-142.7c-1.9-12.1-2.7-24.5-2.7-36.8c-0.2-123.9-0.2-247.8-0.1-371.7c0.1-83.3,55.3-152.8,136.5-171
		c11.7-2.6,23.9-3.7,35.9-4c25.6-0.6,51.2-0.2,76.8-0.1c11.7,0,16.2,4.6,16.2,16.2C-193.5,451.3-193.5,567.2-193.4,683.1
		C-193.5,683.1-193.4,683.1-193.4,683.1z"/>
	<path d="M-765.3,173.9c0-23.2,0-46.4,0-69.6c0.1-90.8,70.1-166.4,160.5-172.2c29.8-1.9,59.9-0.9,89.8-0.9c10,0,15,5.4,15,15.5
		c0.1,51.9,0.7,103.9-0.2,155.8c-1.6,93.7-79.7,168.4-175.3,168.5c-24.2,0-48.3,0-72.5,0c-12.8,0-17.4-4.6-17.4-17.4
		C-765.3,227.1-765.3,200.5-765.3,173.9z"/>
	<path d="M-192.7,173.9c0-23.2,0-46.4,0-69.6C-192.8,13.6-262.7-62-353.2-67.8c-29.8-1.9-59.9-0.9-89.8-0.9c-10,0-15,5.4-15,15.5
		c-0.1,51.9-0.7,103.9,0.2,155.8c1.6,93.7,79.7,168.4,175.3,168.5c24.2,0,48.3,0,72.5,0c12.8,0,17.4-4.6,17.4-17.4
		C-192.7,227.1-192.7,200.5-192.7,173.9z"/>
</g>
<g>
	<path class="st0" d="M0,145c0-22.3,0-44.5,0-66.8c0-2.6,0.8-3.4,3.4-3.4c4.8,0,9.6,0,14.4,0c18.5,0.1,33.3,14.9,33.4,33.5
		c0,24.5,0,48.9,0,73.4c0,18.6-15,33.4-33.5,33.5c-4.7,0-9.4,0-14.1,0c-2.7,0-3.5-0.8-3.5-3.5C0,189.5,0,167.3,0,145z"/>
	<path class="st0" d="M110.3,145c0,22.1,0,44.2,0,66.4c0,3.1-0.7,3.8-3.8,3.7c-5.8-0.1-11.6,0.2-17.3-0.3
		c-14.7-1.1-27.3-13-29.5-27.5c-0.4-2.3-0.5-4.7-0.5-7.1c0-23.9,0-47.8,0-71.7c0-16.1,10.7-29.5,26.3-33c2.3-0.5,4.6-0.7,6.9-0.8
		c4.9-0.1,9.9,0,14.8,0c2.2,0,3.1,0.9,3.1,3.1C110.3,100.3,110.3,122.7,110.3,145C110.3,145,110.3,145,110.3,145z"/>
	<path class="st0" d="M0,46.8c0-4.5,0-8.9,0-13.4C0,15.9,13.5,1.3,31,0.2C36.7-0.1,42.5,0.1,48.3,0c1.9,0,2.9,1,2.9,3
		c0,10,0.1,20,0,30c-0.3,18.1-15.4,32.5-33.8,32.5c-4.7,0-9.3,0-14,0c-2.5,0-3.4-0.9-3.4-3.4C0,57.1,0,52,0,46.8z"/>
	<path class="st0" d="M110.4,46.8c0-4.5,0-8.9,0-13.4c0-17.5-13.5-32.1-31-33.2C73.7-0.1,67.9,0.1,62.1,0c-1.9,0-2.9,1-2.9,3
		c0,10-0.1,20,0,30c0.3,18.1,15.4,32.5,33.8,32.5c4.7,0,9.3,0,14,0c2.5,0,3.4-0.9,3.4-3.4C110.4,57.1,110.4,52,110.4,46.8z"/>
</g>
<g>
	<path class="st0" d="M173.8,169V72h25.6V169H173.8z"/>
	<path class="st0" d="M208.7,169V72h27.3l45.1,61.8V72h25.6V169h-27.3l-45-61.8V169H208.7z"/>
	<path class="st0" d="M340.8,100.5c0,3,1.7,4.9,5,5.7c3.3,0.8,6.8,1.4,10.5,2c3.7,0.6,8,1.1,12.9,1.6c4.9,0.5,9.6,1,13.9,1.5
		c4.3,0.5,8.5,1.2,12.5,2.1c4,0.9,7.5,2.3,10.5,4.4c3,2,5.2,4.9,6.5,8.6c1.3,3.7,2,8,2,12.9c0,8.9-2,15.8-5.9,20.5
		c-4,4.7-9.3,7.8-16,9.3s-15.2,2.3-25.3,2.3c-10.5,0-19.3-0.8-26.4-2.4c-7.1-1.6-13.2-4.6-18.2-9.2c-5-4.6-7.5-12.6-7.5-24h23.1
		c0,5.1,2.4,9,7.3,11.5c4.9,2.5,11.8,3.8,20.8,3.8c9.8,0,16.4-1.1,19.7-3.4c3.3-2.2,5-4.9,5-8.1c0-2.3-1.4-4-4.1-5.1
		c-2.7-1.1-6.4-2.1-11.2-2.9c-4.8-0.8-9.6-1.4-14.4-1.9c-4.9-0.5-9.2-0.9-13.1-1.3c-3.9-0.4-8-1.1-12.4-2.1c-4.4-1-8-2.5-11-4.4
		c-3-1.9-5.3-4.7-7.1-8.5c-1.8-3.8-2.6-8.1-2.6-13.1c0-7.7,1.7-13.8,5.1-18.1c3.4-4.4,8.9-7.5,16.5-9.3c7.6-1.8,16.8-2.7,27.8-2.7
		c11.2,0,20.1,0.9,26.5,2.7c6.5,1.8,11.9,5.1,16.4,9.9c4.5,4.8,6.7,11.9,6.7,21.2h-22.4c0-4-2.4-7.1-7.1-9.4
		c-4.7-2.3-11.2-3.4-19.5-3.4c-9.4,0-15.9,0.7-19.3,2.1C342.6,94.7,340.8,97.1,340.8,100.5z"/>
	<path class="st0" d="M423.2,169V72h55.1c8.5,0,15.8,1.3,22.1,3.8c6.3,2.5,10.9,6.2,13.9,11.1c3,4.9,4.5,10.8,4.5,18
		c0,10.8-2.7,19-8.2,24.8c-5.5,5.8-16.2,8.7-32,8.7h-29.8V169H423.2z M448.8,118.1H477c6.8,0,11-1.2,12.8-3.6
		c1.8-2.4,2.6-5.6,2.6-9.6c0-3.9-1-7-3.1-9.3c-2.1-2.3-5.9-3.4-11.6-3.4h-29V118.1z"/>
	<path class="st0" d="M528.1,169V72h25.6V169H528.1z"/>
	<path class="st0" d="M563.1,169V72h54.1c10.8,0,18.6,0.5,23.5,1.6c4.9,1.1,9.1,3.6,12.6,7.6c3.5,4,5.3,9,5.4,15c0,0.2,0,0.4,0,0.6
		c0,9.8-2.7,16.5-8.1,20.1c-3,2-7.5,3.5-13.6,4.4v0.7c1-0.1,1.9-0.1,2.9-0.1c1.3,0,2.6,0.1,3.9,0.3c5.6,0.8,9.6,2.7,12,5.9
		c2.4,3.2,3.6,7.4,3.6,12.5V169h-25.7v-25c0-2.9-0.4-5-1.1-6.4c-0.7-1.4-2-2.3-4-2.5c-2-0.2-4.4-0.4-7.4-0.4h-32.4V169H563.1z
		 M588.8,114.6h28.7c5,0,8.8-0.9,11.2-2.8s3.7-4.6,3.8-8.2c0-3.4-1.1-6.2-3.4-8.4c-2.3-2.1-6.1-3.2-11.4-3.2h-28.8V114.6z"/>
	<path class="st0" d="M667.9,169V72h86.1v20.1h-60.4v17.8h57.7v19.6h-57.7v19.4h60.4V169H667.9z"/>
</g>
<g>
	<path class="st0" d="M779.4,105.6c-4.8,0-8.8-1.6-12.1-4.9c-3.3-3.3-4.9-7.3-4.9-12.2c0-4.9,1.6-9,4.9-12.2
		c3.3-3.3,7.3-4.9,12.1-4.9c4.8,0,8.8,1.6,12,4.9c3.3,3.3,4.9,7.4,4.9,12.3c0,4.9-1.6,8.9-4.9,12.2
		C788.2,103.9,784.2,105.6,779.4,105.6z M779.4,103.2c4,0,7.4-1.4,10.1-4.2c2.7-2.8,4-6.3,4-10.5c0-4.2-1.4-7.8-4-10.6
		c-2.7-2.8-6.1-4.2-10.1-4.2c-4,0-7.4,1.4-10.1,4.2c-2.7,2.8-4,6.3-4,10.6c0,4.2,1.3,7.7,4,10.5C772,101.8,775.4,103.2,779.4,103.2z
		 M771.8,97.7V79.1h9.2c2,0,3.7,0.5,5,1.4c1.3,1,2,2.3,2,4c0,2.1-1.1,3.6-3.2,4.5v0.1c1.5,0.5,2.4,1.6,2.7,3.4
		c0.1,0.6,0.2,1.3,0.2,2.1c0.1,0.9,0.1,1.5,0.2,1.9c0.1,0.4,0.2,0.7,0.4,0.8v0.4h-5.2c-0.2-0.1-0.3-0.4-0.3-0.8
		c-0.1-0.4-0.1-1-0.2-1.7c0-0.7-0.1-1.3-0.2-1.8c-0.2-0.9-0.4-1.5-0.9-1.8c-0.4-0.4-1.1-0.5-2-0.5H777v6.6H771.8z M777,87.3h3
		c1.7,0,2.6-0.7,2.6-2.1c0-1.4-0.8-2.1-2.5-2.1H777V87.3z"/>
</g>
</svg>
